<?xml version="1.0" standalone="no"?>
<!DOCTYPE svg PUBLIC "-//W3C//DTD SVG 20010904//EN"
 "http://www.w3.org/TR/2001/REC-SVG-20010904/DTD/svg10.dtd">
<svg version="1.0" xmlns="http://www.w3.org/2000/svg"
 width="453.000000pt" height="560.000000pt" viewBox="0 0 453.000000 560.000000"
 preserveAspectRatio="xMidYMid meet">

<g transform="translate(0.000000,560.000000) scale(0.100000,-0.100000)"
fill="#000000" stroke="none">
<path d="M0 2800 l0 -2800 2265 0 2265 0 0 2800 0 2800 -2265 0 -2265 0 0
-2800z m2570 2671 c312 -22 622 -131 878 -307 127 -87 336 -298 420 -421 216
-319 325 -719 293 -1079 -20 -230 -84 -447 -188 -644 -157 -298 -373 -525
-710 -746 -267 -175 -287 -188 -373 -260 -249 -208 -380 -427 -408 -686 -12
-105 1 -253 28 -340 30 -97 28 -105 -32 -133 -29 -14 -70 -25 -90 -25 -70 0
-82 11 -121 108 -83 208 -90 475 -17 694 64 190 149 319 329 498 127 126 155
148 401 312 361 240 486 353 638 577 219 319 289 707 196 1075 -66 261 -174
460 -346 638 -235 243 -548 387 -903 417 -353 30 -689 -54 -983 -245 -108 -70
-298 -259 -367 -364 -449 -682 -253 -1508 395 -1671 164 -42 385 -11 537 74
97 55 189 131 245 204 50 64 77 109 59 99 -6 -4 -11 -2 -11 3 0 6 -6 11 -13
11 -7 0 -20 8 -28 18 -9 11 -43 24 -80 31 -203 40 -359 227 -359 432 0 176
101 332 269 417 74 37 76 37 195 37 111 0 127 -2 191 -29 53 -23 86 -47 142
-101 150 -148 185 -318 118 -582 -91 -356 -323 -661 -615 -808 -187 -93 -314
-120 -542 -112 -134 4 -165 8 -248 34 -194 61 -326 141 -461 280 -259 265
-386 635 -350 1018 73 770 641 1387 1424 1545 91 18 227 34 337 38 14 1 81 -3
150 -7z m-60 -4876 c69 -35 103 -88 108 -169 3 -49 -1 -70 -20 -106 -55 -107
-199 -140 -298 -69 -72 53 -101 130 -79 212 15 57 43 94 97 128 60 38 123 39
192 4z"/>
</g>
</svg>
