<?xml version="1.0" standalone="no"?>
<!DOCTYPE svg PUBLIC "-//W3C//DTD SVG 20010904//EN"
 "http://www.w3.org/TR/2001/REC-SVG-20010904/DTD/svg10.dtd">
<svg version="1.0" xmlns="http://www.w3.org/2000/svg"
 width="250.000000pt" height="308.000000pt" viewBox="0 0 250.000000 308.000000"
 preserveAspectRatio="xMidYMid meet">

<g transform="translate(0.000000,308.000000) scale(0.100000,-0.100000)"
fill="#000000" stroke="none">
<path d="M1070 2840 c-19 -5 -55 -14 -79 -20 -110 -27 -294 -133 -364 -209
-118 -127 -185 -248 -222 -398 -62 -247 -7 -481 148 -637 113 -114 239 -166
397 -166 271 1 487 189 535 468 28 159 -21 268 -146 324 -55 24 -148 24 -197
-1 -53 -28 -109 -89 -127 -140 -50 -143 37 -277 194 -300 24 -3 46 -11 48 -17
6 -18 -84 -100 -139 -127 -91 -43 -155 -53 -233 -33 -86 22 -136 47 -192 99
-157 144 -180 392 -60 644 33 70 126 178 193 224 282 194 662 167 899 -65 87
-85 144 -173 181 -281 25 -72 28 -94 28 -215 0 -116 -3 -144 -23 -200 -76
-215 -160 -311 -428 -486 -278 -182 -405 -377 -390 -599 5 -82 31 -159 61
-184 11 -9 29 -11 60 -7 55 9 72 26 56 56 -6 12 -14 55 -17 96 -14 178 79 332
277 461 192 126 227 151 287 207 152 141 234 282 282 479 16 69 14 289 -5 367
-51 220 -165 390 -344 516 -88 62 -155 93 -285 131 -58 17 -341 26 -395 13z"/>
<path d="M1164 406 c-47 -21 -74 -61 -74 -113 0 -38 6 -51 33 -78 59 -59 118
-58 174 1 25 27 33 44 33 72 0 50 -32 98 -76 117 -44 18 -50 18 -90 1z"/>
</g>
</svg>
